<svg width="175" height="113" viewBox="0 0 175 113" fill="none" xmlns="http://www.w3.org/2000/svg">
<path d="M1.38403 57.5728C10.1533 62.5371 46.14 75.5408 57.6532 61.9268C72.0448 44.9094 46.702 28.0236 34.0463 45.2667C21.3906 62.5097 57.2043 86.5727 76.3839 86.5727C108.384 86.5727 147.969 68.6774 154.884 57.5727" stroke="#FA8F54" stroke-width="1.5" stroke-dasharray="7 7"/>
<path d="M167.388 51.224C167.055 51.3395 166.694 51.3407 166.36 51.2273L162.578 49.9542L161.346 52.8539C161.292 52.9814 161.205 53.0923 161.094 53.1751C160.983 53.2579 160.851 53.3098 160.714 53.3254C160.576 53.341 160.437 53.3197 160.31 53.2638C160.183 53.2079 160.073 53.1193 159.992 53.0072L156.781 48.5854L153.776 48.5845C153.452 48.5842 153.135 48.4852 152.869 48.3007C152.602 48.1162 152.397 47.8548 152.283 47.5513C152.168 47.2479 152.148 46.9167 152.226 46.6018C152.304 46.2868 152.476 46.0031 152.719 45.7882L164.111 35.8335C164.329 35.6429 164.593 35.5146 164.877 35.4624C165.162 35.4102 165.455 35.436 165.725 35.537C165.996 35.6381 166.234 35.8106 166.415 36.0362C166.595 36.2618 166.711 36.5322 166.751 36.8185L168.453 49.5007C168.5 49.8665 168.42 50.2374 168.226 50.5512C168.032 50.8649 167.736 51.1025 167.388 51.224Z" fill="#3B71FE"/>
<path d="M160.881 53.287C160.723 53.3422 160.55 53.3448 160.39 53.2946C160.23 53.2443 160.09 53.1438 159.991 53.0079L156.549 48.2709C156.441 48.1233 156.389 47.9428 156.4 47.7607C156.412 47.5785 156.487 47.4062 156.612 47.2735L163.013 40.4897C163.141 40.3536 163.314 40.2678 163.5 40.2481C163.686 40.2283 163.873 40.2758 164.027 40.382C164.181 40.4881 164.292 40.6459 164.34 40.8268C164.387 41.0077 164.369 41.1996 164.287 41.3679L160.869 48.4256L161.4 52.4446C161.423 52.6172 161.388 52.7926 161.3 52.9429C161.212 53.0932 161.077 53.2099 160.915 53.2745C160.904 53.2792 160.892 53.2833 160.881 53.287Z" fill="#1A4ED3"/>
</svg>
