<svg width="53" height="20" viewBox="0 0 53 20" fill="none" xmlns="http://www.w3.org/2000/svg">
<path d="M1.5551 6.38859C1.99454 6.4627 2.41146 6.17026 2.48683 5.73527L2.4869 5.73482L2.48767 5.7307C2.4887 5.72512 2.49057 5.71526 2.49334 5.70139C2.49889 5.67364 2.50803 5.62998 2.52131 5.57269C2.54791 5.45793 2.59085 5.28963 2.65435 5.08584C2.78225 4.67533 2.98886 4.13605 3.30321 3.604C3.93141 2.54076 4.92115 1.59999 6.53728 1.59999C8.21947 1.59999 9.52006 2.59136 11.0821 3.82537L11.1653 3.89117C11.9821 4.53682 12.8799 5.24644 13.915 5.74571C14.7276 6.13764 15.6249 6.39994 16.6343 6.39994C17.6392 6.39994 18.5331 6.13994 19.3428 5.75089C20.3825 5.25135 21.2836 4.53905 22.1033 3.89117L22.1865 3.82537C23.7485 2.59136 25.0491 1.59999 26.7313 1.59999C28.4135 1.59999 29.7141 2.59136 31.2761 3.82537L31.3594 3.89117C32.1868 4.54518 33.0972 5.26482 34.1494 5.765C34.9513 6.14622 35.8356 6.39994 36.8284 6.39994C37.8166 6.39994 38.6975 6.14848 39.4966 5.7701C40.5534 5.26972 41.4671 4.5474 42.2973 3.89117L42.3806 3.82537C43.9426 2.59136 45.2432 1.59999 46.9254 1.59999C48.554 1.59999 49.6239 2.55501 50.3301 3.63485C50.6815 4.17223 50.9239 4.71578 51.0784 5.12827C51.1552 5.33323 51.2091 5.50249 51.2432 5.61798C51.2602 5.67564 51.2722 5.71963 51.2795 5.74768C51.2832 5.76169 51.2857 5.7717 51.2872 5.77741L51.2881 5.78133L51.2883 5.78218L51.2884 5.78254L51.2885 5.78282C51.3903 6.21227 51.824 6.47917 52.258 6.37911C52.6925 6.27893 52.9627 5.84888 52.8616 5.41857L52.0749 5.59995C52.8616 5.41857 52.8615 5.41825 52.8614 5.41791L52.8613 5.41714L52.8608 5.41528L52.8596 5.41023L52.8559 5.39495C52.8528 5.3825 52.8485 5.36555 52.8429 5.34441C52.8318 5.30215 52.8156 5.24302 52.7939 5.16943C52.7505 5.02241 52.6849 4.81668 52.593 4.57164C52.4104 4.08414 52.1194 3.4277 51.6861 2.7651C50.8228 1.44495 49.318 0 46.9254 0C44.6302 0 42.9144 1.3563 41.4564 2.50877L41.3732 2.57458C39.8111 3.80858 38.5106 4.79996 36.8284 4.79996C35.1462 4.79996 33.8456 3.80858 32.2836 2.57458L32.2003 2.50877C30.7423 1.3563 29.0265 0 26.7313 0C24.4361 0 22.7203 1.3563 21.2624 2.50877L21.1791 2.57458C19.6171 3.80858 18.3165 4.79996 16.6343 4.79996C14.9521 4.79996 13.6515 3.80858 12.0895 2.57458L12.0062 2.50877C10.5483 1.3563 8.83246 0 6.53728 0C4.13218 0 2.69864 1.45921 1.90885 2.79594C1.51422 3.46388 1.26316 4.12459 1.11065 4.61407C1.03394 4.86028 0.980982 5.06697 0.946738 5.21471C0.929594 5.28867 0.917075 5.34814 0.908568 5.3907C0.904313 5.41199 0.901057 5.42907 0.898723 5.44166L0.895903 5.45713L0.894992 5.46227L0.894659 5.46418L0.894523 5.46497C0.894463 5.46532 0.894406 5.46565 1.6907 5.59995L0.894406 5.46565C0.819513 5.9012 1.11531 6.31442 1.5551 6.38859Z" fill="url(#paint0_linear_43_1738)"/>
<path d="M2.48682 12.5352C2.41146 12.9702 1.99454 13.2626 1.5551 13.1885C1.11531 13.1144 0.819513 12.7011 0.894406 12.2656L1.6907 12.3999C0.894406 12.2656 0.894463 12.2653 0.894523 12.2649L0.894659 12.2641L0.894992 12.2622L0.895903 12.2571L0.898723 12.2416C0.901057 12.229 0.904313 12.2119 0.908568 12.1906C0.917075 12.1481 0.929594 12.0886 0.946738 12.0147C0.980982 11.8669 1.03394 11.6602 1.11065 11.414C1.26316 10.9245 1.51422 10.2638 1.90885 9.59588C2.69864 8.25915 4.13218 6.79994 6.53728 6.79994C8.83246 6.79994 10.5483 8.15624 12.0062 9.30871L12.0895 9.37451C13.6515 10.6085 14.9521 11.5999 16.6343 11.5999C18.3165 11.5999 19.6171 10.6085 21.1791 9.37451L21.2624 9.30871C22.7203 8.15624 24.4361 6.79994 26.7313 6.79994C29.0265 6.79994 30.7423 8.15624 32.2003 9.30871L32.2836 9.37451C33.8456 10.6085 35.1462 11.5999 36.8284 11.5999C38.5106 11.5999 39.8111 10.6085 41.3732 9.37451L41.4564 9.30871C42.9144 8.15624 44.6302 6.79994 46.9254 6.79994C49.318 6.79994 50.8228 8.24489 51.6861 9.56503C52.1194 10.2276 52.4104 10.8841 52.593 11.3716C52.6849 11.6166 52.7505 11.8224 52.7939 11.9694C52.8156 12.043 52.8318 12.1021 52.8429 12.1444C52.8485 12.1655 52.8528 12.1824 52.8559 12.1949L52.8596 12.2102L52.8608 12.2152L52.8613 12.2171L52.8614 12.2179C52.8615 12.2182 52.8616 12.2185 52.0749 12.3999L52.8616 12.2185C52.9627 12.6488 52.6925 13.0789 52.258 13.179C51.824 13.2791 51.3903 13.0122 51.2885 12.5828L51.2884 12.5825L51.2883 12.5821L51.2881 12.5813L51.2872 12.5774C51.2857 12.5716 51.2832 12.5616 51.2795 12.5476C51.2722 12.5196 51.2602 12.4756 51.2432 12.4179C51.2091 12.3024 51.1552 12.1332 51.0784 11.9282C50.9239 11.5157 50.6815 10.9722 50.3301 10.4348C49.6239 9.35495 48.554 8.39993 46.9254 8.39993C45.2432 8.39993 43.9426 9.3913 42.3806 10.6253L42.2973 10.6911C41.4671 11.3473 40.5533 12.0697 39.4966 12.57C38.6975 12.9484 37.8166 13.1999 36.8284 13.1999C35.8356 13.1999 34.9513 12.9462 34.1494 12.5649C33.0972 12.0648 32.1868 11.3451 31.3594 10.6911L31.2761 10.6253C29.7141 9.3913 28.4135 8.39993 26.7313 8.39993C25.0491 8.39993 23.7485 9.3913 22.1865 10.6253L22.1033 10.6911C21.2836 11.339 20.3825 12.0513 19.3428 12.5508C18.5331 12.9399 17.6392 13.1999 16.6343 13.1999C15.6249 13.1999 14.7276 12.9376 13.915 12.5457C12.8799 12.0464 11.9821 11.3368 11.1653 10.6911L11.0821 10.6253C9.52006 9.3913 8.21947 8.39993 6.53728 8.39993C4.92115 8.39993 3.93141 9.34069 3.30321 10.4039C2.98886 10.936 2.78225 11.4753 2.65435 11.8858C2.59085 12.0896 2.54791 12.2579 2.52131 12.3726C2.50803 12.4299 2.49889 12.4736 2.49334 12.5013C2.49057 12.5152 2.4887 12.5251 2.48767 12.5306L2.4869 12.5348L2.48682 12.5352Z" fill="url(#paint1_linear_43_1738)"/>
<path d="M2.4869 19.3347L2.48687 19.3349C2.41162 19.77 1.99462 20.0626 1.5551 19.9885C1.11531 19.9143 0.819513 19.5011 0.894406 19.0655L1.6907 19.1998C0.894406 19.0655 0.894463 19.0652 0.894523 19.0648L0.894659 19.0641L0.894992 19.0622L0.895903 19.057L0.898723 19.0415C0.901057 19.029 0.904313 19.0119 0.908568 18.9906C0.917075 18.948 0.929594 18.8886 0.946738 18.8146C0.980982 18.6669 1.03394 18.4602 1.11065 18.2139C1.26316 17.7245 1.51422 17.0638 1.90885 16.3958C2.69864 15.0591 4.13218 13.5999 6.53728 13.5999C8.83246 13.5999 10.5483 14.9562 12.0062 16.1086L12.0895 16.1745C13.6515 17.4085 14.9521 18.3998 16.6343 18.3998C18.3165 18.3998 19.6171 17.4085 21.1791 16.1745L21.2624 16.1086C22.7203 14.9562 24.4361 13.5999 26.7313 13.5999C29.0265 13.5999 30.7423 14.9562 32.2003 16.1087L32.2836 16.1745C33.8456 17.4085 35.1462 18.3998 36.8284 18.3998C38.5106 18.3998 39.8111 17.4085 41.3732 16.1745L41.4564 16.1087C42.9144 14.9562 44.6302 13.5999 46.9254 13.5999C49.318 13.5999 50.8228 15.0448 51.6861 16.365C52.1194 17.0276 52.4104 17.684 52.593 18.1715C52.6849 18.4166 52.7505 18.6223 52.7939 18.7693C52.8156 18.8429 52.8318 18.902 52.8429 18.9443C52.8485 18.9654 52.8528 18.9824 52.8559 18.9948L52.8596 19.0101L52.8608 19.0152L52.8613 19.017L52.8614 19.0178C52.8615 19.0181 52.8616 19.0184 52.0749 19.1998L52.8616 19.0184C52.9627 19.4488 52.6925 19.8788 52.258 19.979C51.824 20.079 51.3903 19.8121 51.2885 19.3827L51.2884 19.3824L51.2883 19.3821L51.2881 19.3812L51.2872 19.3773C51.2865 19.3747 51.2856 19.3712 51.2845 19.3669C51.2832 19.3617 51.2815 19.3552 51.2795 19.3476C51.2722 19.3195 51.2602 19.2755 51.2432 19.2179C51.2091 19.1024 51.1552 18.9331 51.0784 18.7282C50.9239 18.3157 50.6815 17.7721 50.3301 17.2347C49.6239 16.1549 48.554 15.1999 46.9254 15.1999C45.2432 15.1999 43.9426 16.1912 42.3806 17.4252L42.2973 17.491C41.4671 18.1473 40.5533 18.8696 39.4966 19.37C38.6975 19.7484 37.8166 19.9998 36.8284 19.9998C35.8356 19.9998 34.9513 19.7461 34.1494 19.3649C33.0972 18.8647 32.1868 18.1451 31.3594 17.491L31.2761 17.4252C29.7141 16.1912 28.4135 15.1999 26.7313 15.1999C25.0491 15.1999 23.7485 16.1912 22.1865 17.4252L22.1033 17.4911C21.2836 18.1389 20.3825 18.8512 19.3428 19.3508C18.5331 19.7398 17.6392 19.9998 16.6343 19.9998C15.6249 19.9998 14.7276 19.7375 13.915 19.3456C12.8799 18.8463 11.9821 18.1367 11.1654 17.4911L11.0821 17.4252C9.52006 16.1912 8.21947 15.1999 6.53728 15.1999C4.92115 15.1999 3.93141 16.1406 3.30321 17.2039C2.98886 17.7359 2.78225 18.2752 2.65435 18.6857C2.59085 18.8895 2.54791 19.0578 2.52131 19.1726C2.50803 19.2299 2.49889 19.2735 2.49334 19.3013C2.49057 19.3151 2.4887 19.325 2.48767 19.3306L2.4869 19.3347Z" fill="url(#paint2_linear_43_1738)"/>
<defs>
<linearGradient id="paint0_linear_43_1738" x1="26.8828" y1="8.5" x2="0.882813" y2="8.5" gradientUnits="userSpaceOnUse">
<stop offset="0.421875" stop-color="#F5B318"/>
<stop offset="1" stop-color="#F5B318" stop-opacity="0"/>
</linearGradient>
<linearGradient id="paint1_linear_43_1738" x1="26.8828" y1="8.5" x2="0.882813" y2="8.5" gradientUnits="userSpaceOnUse">
<stop offset="0.421875" stop-color="#F5B318"/>
<stop offset="1" stop-color="#F5B318" stop-opacity="0"/>
</linearGradient>
<linearGradient id="paint2_linear_43_1738" x1="26.8828" y1="8.5" x2="0.882813" y2="8.5" gradientUnits="userSpaceOnUse">
<stop offset="0.421875" stop-color="#F5B318"/>
<stop offset="1" stop-color="#F5B318" stop-opacity="0"/>
</linearGradient>
</defs>
</svg>
