<svg width="17" height="7" viewBox="0 0 17 7" fill="none" xmlns="http://www.w3.org/2000/svg">
<g id="Ornament 83">
<path d="M0.213665 2.03042C0.353327 2.05397 0.485832 1.96103 0.509786 1.82278L0.509811 1.82264L0.510053 1.82133C0.510382 1.81955 0.510976 1.81642 0.511857 1.81201C0.51362 1.80319 0.516525 1.78931 0.520745 1.77111C0.529199 1.73464 0.542847 1.68115 0.563027 1.61638C0.603678 1.48591 0.669341 1.31452 0.769248 1.14542C0.968901 0.807501 1.28346 0.508506 1.7971 0.508506C2.33173 0.508506 2.74508 0.823583 3.24152 1.21577L3.26799 1.23669C3.52758 1.44189 3.81289 1.66742 4.14189 1.8261C4.40015 1.95066 4.68533 2.03402 5.00613 2.03402C5.32551 2.03402 5.60959 1.95139 5.86695 1.82774C6.19739 1.66898 6.48378 1.4426 6.74427 1.23669L6.77073 1.21577C7.26717 0.823583 7.68052 0.508506 8.21515 0.508506C8.74979 0.508506 9.16314 0.823583 9.65958 1.21577L9.68604 1.23669C9.94899 1.44454 10.2383 1.67326 10.5727 1.83223C10.8276 1.95339 11.1087 2.03402 11.4242 2.03402C11.7383 2.03402 12.0182 1.9541 12.2722 1.83385C12.6081 1.67482 12.8985 1.44525 13.1623 1.23669L13.1888 1.21577C13.6852 0.823583 14.0986 0.508506 14.6332 0.508506C15.1508 0.508506 15.4909 0.812032 15.7153 1.15522C15.827 1.32602 15.904 1.49876 15.9531 1.62986C15.9775 1.695 15.9947 1.7488 16.0055 1.7855C16.0109 1.80383 16.0147 1.81781 16.017 1.82672C16.0182 1.83118 16.019 1.83436 16.0195 1.83617L16.0198 1.83742L16.0198 1.83769L16.0199 1.8378L16.0199 1.83789C16.0522 1.97438 16.1901 2.0592 16.328 2.0274C16.4661 1.99556 16.552 1.85889 16.5199 1.72212L16.2698 1.77977C16.5199 1.72212 16.5198 1.72202 16.5198 1.72192L16.5197 1.72167L16.5196 1.72108L16.5192 1.71947L16.518 1.71462C16.517 1.71066 16.5157 1.70527 16.5139 1.69856C16.5104 1.68512 16.5052 1.66633 16.4983 1.64294C16.4846 1.59622 16.4637 1.53083 16.4345 1.45295C16.3765 1.29802 16.284 1.08939 16.1462 0.8788C15.8719 0.459233 15.3936 0 14.6332 0C13.9038 0 13.3584 0.431058 12.8951 0.797336L12.8686 0.81825C12.3722 1.21044 11.9588 1.52552 11.4242 1.52552C10.8895 1.52552 10.4762 1.21044 9.97976 0.81825L9.9533 0.797336C9.48993 0.431058 8.94461 0 8.21515 0C7.4857 0 6.94038 0.431058 6.47701 0.797335L6.45055 0.81825C5.95411 1.21044 5.54076 1.52552 5.00613 1.52552C4.47149 1.52552 4.05814 1.21044 3.5617 0.81825L3.53524 0.797335C3.07187 0.431058 2.52655 0 1.7971 0C1.03271 0 0.577104 0.463765 0.326096 0.888604C0.200672 1.10089 0.120881 1.31087 0.0724102 1.46644C0.0480298 1.54469 0.0312002 1.61038 0.0203167 1.65733C0.014868 1.68084 0.0108893 1.69974 0.00818574 1.71327C0.00683339 1.72003 0.00579841 1.72546 0.00505664 1.72946L0.0041603 1.73438L0.00387104 1.73601L0.00376513 1.73662L0.00372172 1.73687C0.00370265 1.73698 0.00368464 1.73709 0.256763 1.77977L0.00368463 1.73709C-0.0201178 1.87551 0.0738937 2.00684 0.213665 2.03042Z" fill="url(#paint0_linear_43_789)"/>
<path d="M0.509786 3.98393C0.485832 4.12218 0.353327 4.21512 0.213665 4.19157C0.0738937 4.16799 -0.0201178 4.03667 0.00368463 3.89824L0.256763 3.94092C0.00368464 3.89824 0.00370265 3.89813 0.00372172 3.89802L0.00376513 3.89777L0.00387104 3.89717L0.0041603 3.89553L0.00505664 3.89061C0.00579841 3.88661 0.00683339 3.88118 0.00818574 3.87442C0.0108893 3.86089 0.014868 3.84199 0.0203167 3.81849C0.0312002 3.77153 0.0480298 3.70584 0.0724102 3.62759C0.120881 3.47202 0.200672 3.26204 0.326096 3.04976C0.577104 2.62492 1.03271 2.16115 1.7971 2.16115C2.52655 2.16115 3.07187 2.59221 3.53524 2.95849L3.5617 2.9794C4.05814 3.37159 4.47149 3.68667 5.00613 3.68667C5.54076 3.68667 5.95411 3.37159 6.45055 2.9794L6.47701 2.95849C6.94038 2.59221 7.4857 2.16115 8.21515 2.16115C8.94461 2.16115 9.48993 2.59221 9.9533 2.95849L9.97976 2.9794C10.4762 3.37159 10.8895 3.68667 11.4242 3.68667C11.9588 3.68667 12.3722 3.37159 12.8686 2.9794L12.8951 2.95849C13.3584 2.59221 13.9038 2.16115 14.6332 2.16115C15.3936 2.16115 15.8719 2.62038 16.1462 3.03995C16.284 3.25054 16.3765 3.45917 16.4345 3.61411C16.4637 3.69198 16.4846 3.75737 16.4983 3.80409C16.5052 3.82748 16.5104 3.84627 16.5139 3.85971C16.5157 3.86643 16.517 3.87181 16.518 3.87577L16.5192 3.88063L16.5196 3.88223L16.5197 3.88282L16.5198 3.88307C16.5198 3.88317 16.5199 3.88327 16.2698 3.94092L16.5199 3.88327C16.552 4.02004 16.4661 4.15672 16.328 4.18855C16.1901 4.22035 16.0522 4.13553 16.0199 3.99904L16.0199 3.99895L16.0198 3.99884L16.0198 3.99857L16.0195 3.99732C16.019 3.99551 16.0182 3.99233 16.017 3.98787C16.0147 3.97896 16.0109 3.96498 16.0055 3.94665C15.9947 3.90995 15.9775 3.85615 15.9531 3.79101C15.904 3.65992 15.827 3.48717 15.7153 3.31637C15.4909 2.97318 15.1508 2.66966 14.6332 2.66966C14.0986 2.66966 13.6852 2.98473 13.1888 3.37693L13.1623 3.39784C12.8985 3.6064 12.6081 3.83597 12.2722 3.995C12.0182 4.11525 11.7383 4.19518 11.4242 4.19518C11.1087 4.19518 10.8276 4.11454 10.5727 3.99338C10.2383 3.83441 9.94899 3.6057 9.68604 3.39784L9.65958 3.37693C9.16314 2.98473 8.74979 2.66966 8.21515 2.66966C7.68052 2.66966 7.26717 2.98473 6.77073 3.37693L6.74427 3.39784C6.48378 3.60375 6.19739 3.83013 5.86695 3.98889C5.60959 4.11254 5.32551 4.19518 5.00613 4.19518C4.68533 4.19518 4.40015 4.11181 4.14189 3.98725C3.81289 3.82857 3.52758 3.60304 3.26799 3.39784L3.24152 3.37693C2.74508 2.98473 2.33173 2.66966 1.7971 2.66966C1.28346 2.66966 0.968901 2.96865 0.769248 3.30657C0.669341 3.47567 0.603678 3.64706 0.563027 3.77753C0.542847 3.8423 0.529199 3.89579 0.520745 3.93226C0.516525 3.95047 0.51362 3.96434 0.511857 3.97316C0.510976 3.97757 0.510382 3.9807 0.510053 3.98248L0.509811 3.98379L0.509786 3.98393Z" fill="url(#paint1_linear_43_789)"/>
<path d="M0.509811 6.14494L0.5098 6.145C0.485883 6.28329 0.353354 6.37628 0.213665 6.35272C0.0738937 6.32914 -0.0201178 6.19782 0.00368463 6.05939L0.256763 6.10207C0.00368464 6.05939 0.00370265 6.05928 0.00372172 6.05917L0.00376513 6.05892L0.00387104 6.05832L0.0041603 6.05668L0.00505664 6.05176C0.00579841 6.04776 0.00683339 6.04233 0.00818574 6.03557C0.0108893 6.02204 0.014868 6.00314 0.0203167 5.97964C0.0312002 5.93268 0.0480298 5.86699 0.0724102 5.78874C0.120881 5.63317 0.200672 5.42319 0.326096 5.21091C0.577104 4.78607 1.03271 4.3223 1.7971 4.3223C2.52655 4.3223 3.07187 4.75336 3.53524 5.11964L3.5617 5.14055C4.05814 5.53274 4.47149 5.84782 5.00613 5.84782C5.54076 5.84782 5.95411 5.53274 6.45055 5.14055L6.47701 5.11964C6.94038 4.75336 7.4857 4.3223 8.21515 4.3223C8.94461 4.3223 9.48993 4.75336 9.9533 5.11964L9.97976 5.14055C10.4762 5.53274 10.8895 5.84782 11.4242 5.84782C11.9588 5.84782 12.3722 5.53274 12.8686 5.14055L12.8951 5.11964C13.3584 4.75336 13.9038 4.3223 14.6332 4.3223C15.3936 4.3223 15.8719 4.78153 16.1462 5.2011C16.284 5.41169 16.3765 5.62032 16.4345 5.77526C16.4637 5.85313 16.4846 5.91852 16.4983 5.96524C16.5052 5.98863 16.5104 6.00742 16.5139 6.02086C16.5157 6.02758 16.517 6.03296 16.518 6.03692L16.5192 6.04178L16.5196 6.04338L16.5197 6.04397L16.5198 6.04422C16.5198 6.04432 16.5199 6.04443 16.2698 6.10207L16.5199 6.04443C16.552 6.18119 16.4661 6.31787 16.328 6.3497C16.1901 6.38151 16.0522 6.29668 16.0199 6.16019L16.0199 6.1601L16.0198 6.15999L16.0198 6.15972L16.0195 6.15847C16.0193 6.15765 16.019 6.15655 16.0186 6.15518C16.0182 6.15352 16.0177 6.15146 16.017 6.14902C16.0147 6.14011 16.0109 6.12613 16.0055 6.1078C15.9947 6.0711 15.9775 6.0173 15.9531 5.95216C15.904 5.82107 15.827 5.64832 15.7153 5.47753C15.4909 5.13433 15.1508 4.83081 14.6332 4.83081C14.0986 4.83081 13.6852 5.14588 13.1888 5.53808L13.1623 5.55899C12.8985 5.76755 12.6081 5.99712 12.2722 6.15615C12.0182 6.27641 11.7383 6.35633 11.4242 6.35633C11.1087 6.35633 10.8276 6.27569 10.5727 6.15453C10.2383 5.99556 9.94899 5.76685 9.68604 5.55899L9.65958 5.53808C9.16314 5.14588 8.74979 4.83081 8.21515 4.83081C7.68052 4.83081 7.26717 5.14588 6.77073 5.53808L6.74427 5.55899C6.48378 5.7649 6.19739 5.99128 5.86695 6.15004C5.60959 6.27369 5.32551 6.35633 5.00613 6.35633C4.68533 6.35633 4.40015 6.27296 4.14189 6.1484C3.81289 5.98972 3.52758 5.76419 3.26799 5.55899L3.24152 5.53808C2.74508 5.14588 2.33173 4.83081 1.7971 4.83081C1.28346 4.83081 0.968901 5.1298 0.769248 5.46772C0.669341 5.63682 0.603678 5.80821 0.563027 5.93868C0.542847 6.00345 0.529199 6.05694 0.520745 6.09341C0.516525 6.11162 0.51362 6.12549 0.511857 6.13431C0.510976 6.13872 0.510382 6.14186 0.510053 6.14363L0.509811 6.14494Z" fill="url(#paint2_linear_43_789)"/>
</g>
<defs>
<linearGradient id="paint0_linear_43_789" x1="8.2633" y1="2.70146" x2="6.20966e-08" y2="2.70146" gradientUnits="userSpaceOnUse">
<stop offset="0.421875" stop-color="#F5B318"/>
<stop offset="1" stop-color="#F5B318" stop-opacity="0"/>
</linearGradient>
<linearGradient id="paint1_linear_43_789" x1="8.2633" y1="2.70146" x2="6.20966e-08" y2="2.70146" gradientUnits="userSpaceOnUse">
<stop offset="0.421875" stop-color="#F5B318"/>
<stop offset="1" stop-color="#F5B318" stop-opacity="0"/>
</linearGradient>
<linearGradient id="paint2_linear_43_789" x1="8.2633" y1="2.70146" x2="6.20966e-08" y2="2.70146" gradientUnits="userSpaceOnUse">
<stop offset="0.421875" stop-color="#F5B318"/>
<stop offset="1" stop-color="#F5B318" stop-opacity="0"/>
</linearGradient>
</defs>
</svg>
